<svg xmlns="http://www.w3.org/2000/svg"
shape-rendering="geometricPrecision"
width="4000" height="4000" viewBox="0 0 698 698"><rect width="100%" height="100%" fill="#FFFFFF" />
  <metadata>null</metadata>

<path d="
M 31.397 332.095
C 34.963 333.868 38.713 336.207 41.847 338.664
C 42.53 339.892 41.953 342.15 41.768 343.495
C 44.828 343.861 48.391 343.294 51.503 343.272
C 56.848 343.234 62.316 343.598 67.642 343.139
C 67.722 346.038 67.526 349.019 67.405 351.923
C 58.979 351.088 50.234 352.022 41.767 351.792
C 41.871 356.219 42.099 360.727 41.811 365.152
C 44.509 365.434 47.726 364.801 50.502 364.806
C 57.545 364.818 64.621 364.972 71.661 364.782
C 71.793 367.775 71.43 370.915 71.401 373.936
C 68.026 373.49 64.401 373.798 61.001 373.799
C 55.001 373.8 49.001 373.776 43.001 373.774
C 40.498 373.774 37.996 373.775 35.494 373.772
C 34.504 373.771 33.003 374.116 32.129 373.685
C 31.384 359.917 33.083 345.799 31.397 332.095 Z"
opacity="1" fill="rgb(22,35,110)" fill-rule="evenodd" />
<path d="
M 31.792 322.308
C 41.456 321.801 51.319 322.313 61.003 322.336
C 63.396 322.342 65.789 322.343 68.182 322.335
C 68.892 322.333 70.306 322.038 70.839 322.541
C 70.866 325.421 70.568 328.43 70.884 331.29
C 70.489 331.81 69.043 331.597 68.444 331.6
C 65.964 331.615 63.483 331.612 61.003 331.616
C 56.837 331.622 52.67 331.583 48.503 331.606
C 45.978 331.62 43.167 331.963 40.721 331.197
C 38.727 330.573 37.099 329.268 35.464 328.029
C 34.298 327.146 32.662 326.312 31.874 325.063
C 31.62 324.147 31.736 323.246 31.792 322.308 Z"
opacity="1" fill="rgb(20,34,111)" fill-rule="evenodd" />
<path d="
M 80.779 322.327
C 83.694 322.322 86.66 322.094 89.568 322.229
C 92.351 326.749 96.321 330.821 99.569 335.03
C 105.152 342.266 110.778 349.504 116.445 356.667
C 116.589 355.606 116.289 354.528 116.299 353.46
C 116.336 349.309 116.316 345.157 116.317 341.004
C 116.318 334.963 117.145 328.365 116.338 322.395
C 119.441 321.946 122.967 322.22 126.108 322.292
C 126.83 326.283 126.175 330.94 126.166 334.999
C 126.147 343.667 126.138 352.334 126.14 361.002
C 126.141 364.168 126.157 367.335 126.167 370.501
C 126.17 371.374 126.577 373.257 126.061 373.97
C 123.394 373.898 120.72 374.029 118.066 373.979
C 111.691 366.338 105.852 358.185 99.646 350.397
C 97.618 347.852 95.675 345.248 93.712 342.653
C 92.908 341.589 92.176 340.502 91.305 339.486
C 91.097 339.242 90.913 338.525 90.687 338.751
C 90.566 338.872 90.773 340.544 90.775 340.97
C 90.784 343.144 90.723 345.324 90.721 347.499
C 90.715 356.273 90.836 365.084 90.646 373.853
C 87.436 373.79 84.128 373.597 80.934 373.963
C 80.555 372.057 80.788 369.942 80.79 368.002
C 80.792 364.168 80.778 360.334 80.776 356.501
C 80.772 345.111 80.657 333.714 80.779 322.327 Z"
opacity="1" fill="rgb(21,36,113)" fill-rule="evenodd" />
<path d="
M 133.811 322.951
C 134.445 322.147 135.815 322.375 136.81 322.365
C 139.435 322.34 142.059 322.321 144.685 322.337
C 155.155 322.402 165.691 322.614 176.156 322.309
C 176.804 325.302 175.689 328.613 176.284 331.616
C 172.543 331.437 168.749 331.542 165.002 331.581
C 163.486 331.597 161.314 331.219 160.021 332.044
C 159.503 340.996 159.8 350.036 159.83 359.001
C 159.846 363.802 159.158 369.15 159.875 373.887
C 157.597 373.696 155.277 373.772 152.992 373.78
C 152.033 373.783 150.954 374.048 150.082 373.643
C 149.67 359.702 150.574 345.687 149.961 331.758
C 146.166 331.471 142.31 331.597 138.505 331.588
C 137.196 331.584 135.097 332.016 133.896 331.575
C 133.847 328.705 133.686 325.819 133.811 322.951 Z"
opacity="1" fill="rgb(21,36,113)" fill-rule="evenodd" />
<path d="
M 184.321 323
C 184.425 322.828 184.53 322.656 184.634 322.483
C 193.679 321.806 202.934 322.273 212.006 322.277
C 214.575 322.279 217.145 322.285 219.714 322.32
C 220.685 322.334 222.04 322.038 222.917 322.493
C 222.718 325.294 222.53 328.537 222.867 331.32
C 215.581 331.494 208.29 331.361 201.002 331.4
C 199.237 331.409 197.461 331.342 195.699 331.445
C 195.067 331.482 194.326 331.382 193.938 331.917
C 193.855 335.699 193.494 339.73 193.814 343.492
C 202.418 343.68 211.095 343.32 219.712 343.358
C 219.702 346.193 219.653 349.113 219.391 351.939
C 210.996 351.984 202.551 351.652 194.166 352.027
C 193.653 353.186 193.935 354.714 193.927 355.969
C 193.906 359.008 194.016 362.12 193.771 365.148
C 203.718 365.151 213.695 364.823 223.653 365.088
C 223.579 368.044 223.402 371.001 223.46 373.972
C 210.529 373.539 197.377 373.518 184.448 373.966
C 184.054 371.903 184.302 369.603 184.298 367.504
C 184.288 363.338 184.297 359.172 184.289 355.005
C 184.276 348.005 184.293 341.005 184.303 334.005
C 184.308 330.36 184.04 326.633 184.321 323 Z"
opacity="1" fill="rgb(22,39,114)" fill-rule="evenodd" />
<path d="
M 220.205 289.414
C 220.784 289.167 222.123 290.148 222.572 289.716
C 223.367 288.952 223.597 287.088 224.121 286.096
C 225.712 283.081 227.149 279.91 228.985 277.035
C 229.383 276.411 231.472 274.054 231.269 273.352
C 230.92 272.144 228.165 271.179 227.14 270.831
C 231.283 261.23 237.453 252.457 243.702 244.146
C 266.233 214.175 301.16 195.24 338.019 190.279
C 349.001 188.801 360.849 187.905 371.881 189.47
C 377.639 190.287 383.412 190.796 389.127 191.949
C 397.685 193.676 406.054 196.133 414.31 198.954
C 418.572 200.411 422.855 202.13 426.89 204.137
C 429.02 205.197 431.508 206.938 433.812 207.486
C 436.327 200.108 440.867 193.36 444.128 186.308
C 444.462 185.939 445.172 187.782 445.387 188.224
C 446.442 190.401 447.476 192.589 448.519 194.773
C 451.328 200.654 454.062 206.569 456.883 212.442
C 462.394 223.915 467.697 235.484 473.291 246.914
C 475.078 250.565 476.733 254.281 478.555 257.916
C 479.466 259.732 480.96 261.907 481.441 263.861
C 472.759 264.029 463.841 265.705 455.2 266.649
C 436.893 268.651 418.567 270.544 400.242 272.366
C 400.567 269.921 402.791 267.072 403.856 264.825
C 406.517 259.214 409.19 253.603 411.79 247.963
C 412.091 247.305 412.552 246.726 412.803 246.044
C 402.072 239.92 391.423 234.46 379.447 231.098
C 342.12 220.619 300.803 227.377 268.635 248.922
C 253.383 259.138 240.65 272.335 229.942 287.183
C 226.475 291.991 223.31 297.035 220.587 302.3
C 219.631 304.147 218.613 305.955 217.764 307.855
C 217.603 308.214 216.373 310.713 216.37 310.124
C 216.94 303.129 218.397 296.186 220.205 289.414 Z"
opacity="1" fill="rgb(18,124,195)" fill-rule="evenodd" />
<path d="
M 227.14 270.831
C 228.165 271.179 230.92 272.144 231.269 273.352
C 231.472 274.054 229.383 276.411 228.985 277.035
C 227.149 279.91 225.712 283.081 224.121 286.096
C 223.597 287.088 223.367 288.952 222.572 289.716
C 222.123 290.148 220.784 289.167 220.205 289.414
C 221.554 283.029 224.488 276.76 227.14 270.831 Z"
opacity="1" fill="rgb(21,130,208)" fill-rule="evenodd" />
<path d="
M 226.299 435.369
C 253.103 432.082 280.194 431.03 306.998 427.886
C 303.433 436.948 297.166 444.987 293.676 454.078
C 298.261 456.081 302.492 458.858 307.059 460.929
C 316.215 465.08 325.82 468.436 335.656 470.569
C 378.137 479.781 422.626 467.49 454.607 438.105
C 464.857 428.687 473.741 417.742 481.283 406.06
C 483.555 402.54 485.934 398.668 487.64 394.837
C 488.382 393.172 489.303 389.862 490.715 388.756
C 491.163 388.881 490.816 389.853 490.748 390.206
C 490.423 391.886 490.029 393.567 489.688 395.249
C 488.276 402.225 486.699 409.335 484.358 416.06
C 474.775 443.587 456.681 466.652 433.415 483.919
C 399.569 509.037 353.831 516.276 313.229 506.662
C 304.759 504.657 296.242 502.06 288.239 498.626
C 284.92 497.202 281.597 495.782 278.321 494.263
C 276.679 493.502 274.803 492.158 273.073 491.74
C 271.029 496.997 267.678 502.21 264.915 507.139
C 263.938 508.88 263.074 511.717 261.542 513.013
C 257.352 504.229 253.657 495.111 249.643 486.227
C 245.44 476.922 240.835 467.795 236.615 458.5
C 234.235 453.256 231.844 448.004 229.34 442.818
C 228.227 440.513 227.37 437.92 226.015 435.763
C 226.11 435.632 226.204 435.501 226.299 435.369 Z"
opacity="1" fill="rgb(24,48,129)" fill-rule="evenodd" />
<path d="
M 232.826 322.373
C 238.646 322.305 244.472 322.354 250.295 322.284
C 256.347 322.21 262.441 321.99 267.789 325.308
C 275.717 330.228 277.937 341.999 272.682 349.722
C 270.726 352.597 267.503 354.711 264.284 355.925
C 267.124 359.832 269.691 363.924 272.449 367.888
C 273.726 369.723 276.146 371.99 276.893 374.04
C 276.503 374.325 274.693 373.872 274.162 373.899
C 271.396 374.039 268.016 374.544 265.302 374.184
C 262.94 370.528 260.385 367.034 257.952 363.428
C 256.657 361.509 255.635 359.149 254.1 357.429
C 250.486 357.023 246.392 357.469 242.755 357.662
C 242.901 362.88 241.906 368.647 242.724 373.79
C 239.531 373.661 236.106 373.507 232.939 373.959
C 232.266 364.74 232.803 355.25 232.807 346.003
C 232.811 338.198 232.227 330.149 232.826 322.373 Z
M 242.771 331.652
C 242.868 337.36 242.76 343.095 242.635 348.803
C 248.9 347.904 257.092 350.801 262.579 346.707
C 267.103 343.333 266.084 335.402 261.437 332.718
C 258.079 330.778 253.217 331.394 249.503 331.542
C 247.264 331.632 245 331.396 242.771 331.652 Z"
opacity="1" fill="rgb(22,38,113)" fill-rule="evenodd" />
<path d="
M 285.456 323.613
C 285.533 322.982 285.517 323.364 285.401 322.466
C 288.496 321.743 292.317 322.334 295.502 322.327
C 303.766 322.309 313.473 320.816 320.364 326.509
C 329.525 334.077 328.484 349.678 318.243 355.748
C 311.543 359.719 303.038 359.214 295.528 359.119
C 295.466 364.023 295.291 368.952 295.367 373.863
C 292.124 373.649 288.738 373.646 285.502 373.952
C 285.031 368.027 285.398 361.947 285.412 356.002
C 285.439 345.203 285.452 334.405 285.456 323.613 Z
M 295.471 331.361
C 295.336 337.694 295.393 344.05 295.536 350.376
C 300.766 350.608 307.954 351.352 312.654 348.623
C 318.184 345.411 318.037 335.793 312.563 332.652
C 307.863 329.955 300.671 331.554 295.471 331.361 Z"
opacity="1" fill="rgb(22,38,114)" fill-rule="evenodd" />
<path d="
M 334.944 322.316
C 340.924 322.064 346.956 322.303 352.945 322.266
C 359.262 322.226 365.92 321.929 371.273 325.903
C 381.052 333.164 379.575 353.016 366.162 355.473
C 371.241 360.863 373.754 368.577 379.003 373.853
C 379.002 374.151 378.211 373.933 378.079 373.919
C 377.064 373.81 376.025 373.805 375.005 373.782
C 372.628 373.73 369.377 374.42 367.127 373.907
C 364.115 367.977 359.395 362.944 356.16 357.108
C 352.627 357.472 348.984 357.234 345.432 357.343
C 344.536 358.666 345.085 360.725 345.067 362.258
C 345.024 365.947 345.528 370.179 344.935 373.804
C 341.661 373.653 338.201 373.558 334.942 373.934
C 334.393 368.416 334.96 362.551 334.938 356.997
C 334.891 345.439 334.805 333.872 334.944 322.316 Z
M 344.925 331.917
C 344.616 337.454 345.219 343.039 344.817 348.57
C 350.099 348.385 356.597 349.505 361.667 347.848
C 367.417 345.97 369.731 338.389 365.364 333.849
C 361.805 330.148 355.106 331.352 350.474 331.404
C 348.959 331.422 346.133 330.965 344.925 331.917 Z"
opacity="1" fill="rgb(21,36,112)" fill-rule="evenodd" />
<path d="
M 387.914 322.258
C 391.161 322.272 394.431 322.353 397.677 322.197
C 398.001 332.271 397.628 342.415 397.611 352.496
C 397.599 359.512 398.086 366.805 397.557 373.779
C 396.955 374.046 395.678 373.762 395.003 373.766
C 392.673 373.78 390.37 373.706 388.044 373.877
C 387.386 373.19 387.783 371.138 387.774 370.193
C 387.742 366.964 387.81 363.733 387.822 360.503
C 387.87 347.828 388.565 334.908 387.914 322.258 Z"
opacity="1" fill="rgb(23,37,111)" fill-rule="evenodd" />
<path d="
M 407.205 366.49
C 409.115 364.364 410.731 361.969 412.425 359.667
C 413.522 359.921 414.17 360.879 415.103 361.475
C 417.307 362.883 419.561 364.161 422.073 364.936
C 425.902 366.118 430.557 366.881 434.312 365.02
C 437.707 363.338 439.028 359.197 436.189 356.287
C 434.24 354.29 431.279 353.631 428.696 352.876
C 422.328 351.014 414.235 349.921 410.795 343.464
C 405.874 334.228 412.76 323.958 422.16 321.988
C 430.994 320.136 438.886 323.197 446.407 327.588
C 444.85 330.133 442.908 332.636 441.847 335.447
C 440.68 335.767 438.047 333.548 436.939 333
C 433.489 331.293 428.696 329.883 424.818 330.525
C 422.688 330.877 420.495 331.8 419.7 334.016
C 417.512 340.116 425.226 341.843 429.48 342.911
C 437.379 344.894 446.901 348.192 447.809 357.589
C 447.95 359.043 447.937 360.542 447.702 361.984
C 445.42 375.983 426.805 376.5 416.484 372.379
C 413.071 371.016 410.429 368.733 407.247 367.086
C 407.233 366.888 407.219 366.689 407.205 366.49 Z"
opacity="1" fill="rgb(20,33,108)" fill-rule="evenodd" />
<path d="
M 456.831 322.275
C 466.222 322.271 475.616 322.198 485.007 322.228
C 487.508 322.235 490.008 322.267 492.509 322.287
C 493.494 322.296 495.035 321.961 495.913 322.387
C 495.726 325.368 495.771 328.423 495.84 331.409
C 488.66 330.886 481.211 331.448 474.005 331.456
C 472.172 331.458 470.339 331.449 468.506 331.448
C 467.942 331.448 467.085 331.238 466.737 331.743
C 466.828 335.511 467.012 339.473 466.592 343.221
C 469.034 343.714 472.002 343.264 474.506 343.268
C 480.474 343.278 486.546 343.039 492.499 343.407
C 492.315 346.23 492.429 349.108 492.384 351.935
C 486.925 351.85 481.465 351.842 476.003 351.83
C 472.986 351.824 469.833 351.557 466.836 351.914
C 466.384 352.861 466.697 354.393 466.691 355.464
C 466.679 357.696 466.645 359.93 466.616 362.163
C 466.604 363.062 466.426 364.192 466.793 365.016
C 474.18 364.222 482.023 364.902 489.46 364.917
C 491.186 364.921 492.908 364.876 494.632 364.823
C 495.102 364.809 496.051 364.626 496.305 365.034
C 496.247 367.189 496.226 369.343 496.243 371.499
C 496.248 372.075 496.55 373.577 496.202 374.009
C 490.222 373.419 484.009 373.86 478.004 373.852
C 471.024 373.844 463.905 373.433 456.945 373.965
C 456.387 368.594 456.914 362.902 456.925 357.497
C 456.949 345.761 457.058 334.007 456.831 322.275 Z"
opacity="1" fill="rgb(21,37,111)" fill-rule="evenodd" />
<path d="
M 509.369 318.376
C 510.495 317.577 513.299 318.04 514.713 317.966
C 514.455 326.292 515.311 334.757 514.719 343.062
C 515.099 343.522 516.278 343.289 516.884 343.294
C 519.103 343.314 521.326 343.25 523.545 343.25
C 529.699 343.25 535.852 343.271 542.006 343.268
C 544.497 343.267 547.837 342.668 550.236 343.287
C 549.758 338.607 550.19 333.706 550.177 329.002
C 550.167 325.341 549.682 321.331 550.152 317.711
C 551.848 317.712 553.551 317.681 555.248 317.664
C 555.404 330.437 555.291 343.222 555.275 355.997
C 555.27 359.998 555.27 363.999 555.26 368
C 555.256 369.903 554.993 372.037 555.311 373.909
C 553.913 374.328 551.82 373.785 550.331 373.849
C 549.842 371.97 550.273 369.45 550.274 367.501
C 550.276 363.168 550.276 358.835 550.258 354.503
C 550.251 352.73 550.764 350.017 550.177 348.36
C 538.536 347.367 526.455 348.239 514.78 348.309
C 514.753 354.538 514.689 360.77 514.703 367.001
C 514.706 368.498 514.646 369.998 514.67 371.494
C 514.68 372.148 514.911 373.382 514.548 373.944
C 512.847 373.892 511.132 374.025 509.442 373.977
C 509.431 361.323 509.44 348.655 509.396 335.996
C 509.375 330.146 509.671 324.215 509.369 318.376 Z"
opacity="1" fill="rgb(20,117,184)" fill-rule="evenodd" />
<path d="
M 570.717 331.728
C 571.619 331.162 574.683 331.406 575.729 331.707
C 575.301 335.498 575.74 339.573 575.731 343.396
C 575.715 350.065 574.68 358.125 578.119 364.142
C 583.486 373.533 597.566 371.066 601.91 362.201
C 603.603 358.747 603.249 354.607 603.258 350.866
C 603.273 344.517 603.655 337.975 603.146 331.649
C 604.873 331.648 606.598 331.596 608.326 331.613
C 607.947 334.478 608.276 337.604 608.284 340.497
C 608.299 346.497 608.32 352.497 608.303 358.497
C 608.294 361.831 608.264 365.166 608.237 368.5
C 608.223 370.192 607.932 372.243 608.322 373.885
C 606.741 373.787 605.138 373.834 603.555 373.881
C 603.392 371.934 603.487 369.935 603.53 367.982
C 603.541 367.491 603.87 366.201 603.187 366.307
C 596.659 377.061 578.871 378.134 573.09 365.921
C 571.416 362.385 571.245 358.838 571.064 355.011
C 570.7 347.273 571.298 339.453 570.717 331.728 Z"
opacity="1" fill="rgb(22,117,179)" fill-rule="evenodd" />
<path d="
M 623.505 314.607
C 623.503 314.439 623.501 314.271 623.5 314.103
C 624.688 313.077 626.749 313.533 628.293 313.499
C 627.483 322.364 628.8 331.521 628.506 340.417
C 629.092 340.375 629.814 339.049 630.093 338.612
C 631.226 336.836 632.617 335.34 634.304 334.074
C 639.667 330.048 647.507 329.723 653.664 331.999
C 672.008 338.782 670.125 367.776 652.238 373.719
C 646.608 375.589 640.355 375.058 635.195 372.057
C 633.261 370.933 631.731 369.592 630.315 367.863
C 629.82 367.259 629.102 365.974 628.356 366.108
C 628.424 368.633 628.344 371.274 628.716 373.774
C 627.188 373.619 625.569 373.798 624.031 373.793
C 623.45 373.218 623.807 370.862 623.791 370
C 623.721 366.168 623.78 362.332 623.761 358.5
C 623.687 343.883 623.855 329.209 623.505 314.607 Z
M 628.461 351.616
C 628.152 356.604 629.585 361.698 633.115 365.33
C 640.552 372.983 653.753 371.771 659.127 362.332
C 660.779 359.43 661.419 356.307 661.546 352.991
C 662.048 339.86 647.77 329.775 636.237 337.542
C 633.821 339.169 631.967 341.611 630.597 344.149
C 629.36 346.44 628.623 349.016 628.461 351.616 Z"
opacity="1" fill="rgb(20,113,176)" fill-rule="evenodd" />

</svg>